<svg id="Desing" xmlns="http://www.w3.org/2000/svg" xmlns:xlink="http://www.w3.org/1999/xlink" viewBox="0 0 722.08 722.99"><defs><style>.cls-1,.cls-6{fill:none;}.cls-2{clip-path:url(#clip-path);}.cls-3{fill:#097070;}.cls-3,.cls-6{stroke:#000;stroke-miterlimit:10;stroke-width:3px;}.cls-4{fill:#08514f;}.cls-5{fill:#fff;}</style><clipPath id="clip-path" transform="translate(-590.08 -159.01)"><path class="cls-1" d="M606.82,416.61a358.7,358.7,0,0,0,41.81,297.71c107.29,167.06,329.69,215.51,496.76,108.23,139.06-89.31,195.93-258.38,149.21-408.9-.18.45-.37.9-.6,1.35.23-.45.42-.9.6-1.35Q1290,398.77,1284,384.17a.63.63,0,0,1-.21-.52,360.57,360.57,0,0,0-30.19-57.86C1146.32,158.73,923.92,110.27,756.86,217.56a358.07,358.07,0,0,0-150,199.05"/></clipPath></defs><title>Logo-FAsvg</title><g class="cls-2"><path id="Fondo" class="cls-3" d="M1294,415c.23-.45.42-.9.6-1.35Q1290,398.77,1284,384.17a.63.63,0,0,1-.21-.52,360.57,360.57,0,0,0-30.19-57.86C1146.32,158.73,923.92,110.27,756.86,217.56S541.34,547.26,648.63,714.32s329.69,215.51,496.76,108.23c139.06-89.31,195.93-258.38,149.21-408.9C1294.42,414.1,1294.23,414.55,1294,415Z" transform="translate(-590.08 -159.01)"/><path id="Sombreado" class="cls-4" d="M1255,336c8.79,14.43,81.09,138.43,34,285-27.47,85.51-102.29,198.85-163,188-84.71-15.14-8-291.56-186-369-135.66-59-266.65-32.2-267-106-.23-49.24,73.24-103.34,92.42-115.95C888.49,137.12,1031,176.44,1050,182,1093.91,194.85,1192.16,232.75,1255,336Z" transform="translate(-590.08 -159.01)"/><path id="Letra_A" data-name="Letra A" class="cls-5" d="M1285,383,613.27,399.15c-.37,1-5.35,14.15-6.27,17.85l224.6-5.58c3.4.58,4.88,1.08,7.4,1.58,27.66,5.45,120.8,31.85,176.77,116.73,42.58,64.56,39.76,129,33.8,163L900.92,878.6c1.57,0,16.72,2.41,22.08,3.4l132-166.12,13-16.31L1296.27,414.3C1295.67,413.49,1285.18,383.89,1285,383ZM1072.19,664.48a238.8,238.8,0,0,0-39.59-143.55c-41.81-63.4-103.68-95.29-147.36-110.77l397.84-9.32Z" transform="translate(-590.08 -159.01)"/><g id="Letra_F" data-name="Letra F"><path class="cls-5" d="M964.53,504H803.85l-5.7-185.41L1242,307c-.1-.13-12.49-15.49-12.56-15.62L791.19,302.55a9.22,9.22,0,0,0-1.9-.21H789a9,9,0,0,0-2.1.32L662,306c-.41.72-11.6,15.67-12,16,3,0,4.6.18,6.76.18H657L780.93,319l16,527c1,.16,16.81,8.2,17.49,8.27L804.34,522H964.63c4.76-1.9,8.57-5.57,8.51-10.05A8.31,8.31,0,0,0,964.53,504Z" transform="translate(-590.08 -159.01)"/></g><g id="Contorno_de_Letras" data-name="Contorno de Letras"><path id="A" class="cls-6" d="M1283.6,383,805,394.54l-3.83.09m-18.83.45-3.59.09-165.48,4m0,0c0,.07-.08.2-.14.39M607.5,417l171.75-4.27,3.75-.09m18.84-.47,3.66-.09,26.1-.65c3.4.58,4.88,1.08,7.4,1.58,27.66,5.45,120.8,31.85,176.77,116.73,42.58,64.56,39.76,129,33.8,163L902.82,876.22m22.86,2.41L1055,715.88l13-16.31,227.07-283.86m-223,248.77a238.8,238.8,0,0,0-39.59-143.55c-41.81-63.4-103.68-95.29-147.36-110.77l397.84-9.32Z" transform="translate(-590.08 -159.01)"/></g></g></svg>